<svg width="256" height="277" viewBox="0 0 256 277" fill="none" xmlns="http://www.w3.org/2000/svg">
<path d="M138.379 151.105L117.476 151.154L146.379 254.713C146.379 254.713 151.58 272.973 152.856 274.701C154.505 276.935 155.381 276.935 156.856 274.701C158.04 272.909 160.928 254.174 160.928 254.174L179.976 150.554L159.482 150.992L151.167 197.644L138.379 151.105Z" fill="black"/>
<path d="M132.842 131.051L112.104 131.097L117.476 151.154L138.379 151.105L132.842 131.051Z" fill="black"/>
<path d="M163.074 131.008L159.482 150.992L179.976 150.554L183.472 130.586L163.074 131.008Z" fill="black"/>
<path d="M218.491 150.554C242.476 150.554 255.32 133.586 255.32 111.834C253.476 93.0865 245.694 81.7024 227.572 73.7434C208.386 66.7017 188.239 74.3791 180.534 83.6061C171.972 92.5864 169.476 102.086 166.785 111.086L164.681 121.476L163.074 131.008L183.472 130.586C183.934 126.196 185.951 117.131 185.951 117.131C190.846 98.1594 197.472 91.2951 212.976 91.0865C224.869 91.9517 233.166 98.1594 234.942 110.499C236.445 120.495 232.472 130.582 218.677 130.582C209.744 130.593 183.472 130.586 183.472 130.586L179.976 150.554H218.491Z" fill="black"/>
<path d="M132.842 131.051L104.972 28.0169C104.972 28.0169 98.3354 3.89711 97.1075 2.1898C94.9516 -0.807613 94.731 -0.703879 92.6828 2.35354C91.6125 3.95127 88.6595 28.0169 88.6595 28.0169L75.1504 131.285L95.1726 131.034L100.647 89.5318L112.104 131.097L132.842 131.051Z" fill="black"/>
<path d="M75.1504 131.285L72.812 151.076L93.1504 151.219L95.1726 131.034L75.1504 131.285Z" fill="black"/>
<path d="M117.476 151.154L112.104 131.097L95.1726 131.034L93.1504 151.219L117.476 151.154Z" fill="black"/>
<path d="M132.842 131.051L138.379 151.105L159.482 150.992L163.074 131.008L132.842 131.051Z" fill="black"/>
<path d="M72.812 151.076L75.1504 131.285C75.1504 131.285 51.9903 131.172 37.1504 131.099C24.6529 131.285 9.05652 134.713 2.39052 153.344C-1.16156 163.272 -0.401716 173.727 2.36245 180.392C4.4194 188.105 13.5058 200.629 26.6003 205.09C34.5475 207.845 44.482 209.928 58.1504 206.152C70.6582 202.008 78.9845 195.465 86.3842 180.323C89.4288 174.093 91.0498 167.846 93.1504 151.219L72.812 151.076C69.311 182.231 57.2177 188.313 42.4365 188.057C36.5121 187.954 30.4481 185.455 26.6897 182.111C21.7544 177.345 19.4158 171.599 20.1504 164.652C22.2222 154.493 25.6299 151.086 39.0222 151.142L72.812 151.076Z" fill="black"/>
</svg>
